<?xml version="1.0" encoding="utf-8"?>
<!-- Generator: Adobe Illustrator 23.0.6, SVG Export Plug-In . SVG Version: 6.00 Build 0)  -->
<svg version="1.0" id="Layer_1" xmlns="http://www.w3.org/2000/svg" xmlns:xlink="http://www.w3.org/1999/xlink" x="0px" y="0px"
	 viewBox="0 0 100 100" style="enable-background:new 0 0 100 100;" xml:space="preserve">
<style type="text/css">
	.st0{fill:#F1592A;}
	.st1{fill:#FFFFFF;}
	.st2{fill:none;stroke:#000000;stroke-miterlimit:10;}
	.st3{fill:none;stroke:#FFFFFF;stroke-width:3;stroke-miterlimit:10;}
	.st4{fill:none;stroke:#F4F4F4;stroke-width:3;stroke-miterlimit:10;}
</style>
<ellipse class="st0" cx="45.6" cy="37.8" rx="6.5" ry="4.2"/>
<rect x="45.1" y="32.8" transform="matrix(0.7009 -0.7133 0.7133 0.7009 -17.8696 46.5458)" class="st1" width="3" height="23.6"/>
<polygon class="st2" points="59.4,53.8 59.4,53.8 59.4,53.8 59.4,53.8 "/>
<path class="st3" d="M53.9,54.5L51,57.4c-4.9,4.9-12.9,4.9-17.8,0l0,0c-4.9-4.9-4.9-12.9,0-17.8l2.9-2.9c4.9-4.9,12.9-4.9,17.8,0
	l0,0C58.8,41.6,58.8,49.6,53.9,54.5z"/>
<path class="st1" d="M47.2,44.6c-0.4,0-0.8-0.2-1.1-0.5c-0.6-0.6-0.6-1.5,0-2.1c2.2-2.2,4.4-4.3,6.6-6.5c1.7-1.7,3.4-3.3,5.1-5
	c2.7-2.6,7-7.2,11.4-5.1c1,0.5,1.7,1.5,2,2.7c0.4,1.7,0,3.7-0.8,4.8c-0.6,0.8-1.2,1.6-1.9,2.4c-0.8,1-1.6,2-2.4,3.1
	c-0.2,0.2-0.5,0.5-0.6,0.8c-0.1,0.2,0,0.6,0.1,0.8c0.1,0.2,0.2,0.4,0.4,0.5c0.1,0,0.1,0.1,0.2,0.1c0.1,0.1,1.2,0.6,2.7-0.3L80.7,30
	c0.6-0.6,1.6-0.5,2.1,0.1c0.6,0.6,0.5,1.6-0.1,2.1L70.9,42.7c-0.1,0-0.1,0.1-0.2,0.1c-2.5,1.6-4.9,1.1-6,0.5c-2.1-1-2.4-3.5-2.2-4.8
	c0-0.3,0.2-0.5,0.3-0.7c1.5-2.2,5.4-5.4,5.5-8.1c0-0.5,0-0.9-0.3-1.3c-0.8-0.9-3-0.5-4.4,0.7c0,0-15.4,15.1-15.4,15.1
	C47.9,44.4,47.6,44.6,47.2,44.6z"/>
<path class="st4" d="M87.4,82"/>
</svg>
