<?xml version="1.0" encoding="utf-8"?>
<!-- Generator: Adobe Illustrator 23.0.6, SVG Export Plug-In . SVG Version: 6.00 Build 0)  -->
<svg version="1.0" id="Layer_1" xmlns="http://www.w3.org/2000/svg" xmlns:xlink="http://www.w3.org/1999/xlink" x="0px" y="0px"
	 viewBox="0 0 100 100" style="enable-background:new 0 0 100 100;" xml:space="preserve">
<style type="text/css">
	.st0{fill:none;stroke:#F1592A;stroke-width:3;stroke-linecap:round;stroke-linejoin:round;stroke-miterlimit:10;}
	.st1{fill:#FFFFFF;}
	.st2{fill:none;stroke:#FFFFFF;stroke-width:3;stroke-linecap:round;stroke-linejoin:round;stroke-miterlimit:10;}
</style>
<path class="st0" d="M30.6,53.6V37.4c0,0,4.5-7.8,15.8-5.8c0,0-0.1,12.9-15.3,10.1"/>
<path class="st0" d="M30.6,37.4c0,0-3.6-7.3-15.5-6.1c0,0,0.3,13.5,15.4,10.2L30.6,37.4z"/>
<path class="st1" d="M49.2,52.3c-0.2-0.1-0.4-0.2-0.7-0.2H13.3c-0.8,0-1.5,0.7-1.5,1.5s0.7,1.5,1.5,1.5h34.8
	c0.3,0.2,0.9,0.7,0.7,1.3c0,0.2-0.1,0.4,0,0.5c0,0,0.1,0.9-0.7,1.4H13.3c-0.1,0-0.3,0-0.4,0.1c-0.1,0-3.6,1.1-3.4,5.9
	c0,0.3,0.1,0.5,0.2,0.7c0.1,0.2,1,1.6,2.8,2.8c0.3,0.2,0.5,0.3,0.9,0.3h34.3c0.8,0,1.5-0.7,1.5-1.5s-0.7-1.5-1.5-1.5H13.8
	c-0.7-0.5-1.1-1-1.4-1.4c0.1-1.6,0.8-2.2,1.2-2.4h35c0.2,0,0.5-0.1,0.7-0.2c2.2-1.1,2.6-3.1,2.6-4.4C52.2,54.5,50.3,52.8,49.2,52.3z
	"/>
<line class="st2" x1="45.5" y1="59.9" x2="45.5" y2="66.6"/>
<line class="st2" x1="16.4" y1="59.4" x2="16.4" y2="53.6"/>
</svg>
