<?xml version="1.0" encoding="utf-8"?>
<!-- Generator: Adobe Illustrator 23.0.6, SVG Export Plug-In . SVG Version: 6.00 Build 0)  -->
<svg version="1.0" id="Layer_1" xmlns="http://www.w3.org/2000/svg" xmlns:xlink="http://www.w3.org/1999/xlink" x="0px" y="0px"
	 viewBox="0 0 842 595" style="enable-background:new 0 0 842 595;" xml:space="preserve">
<style type="text/css">
	.st0{fill:none;stroke:#FFFFFF;stroke-width:3;stroke-linecap:round;stroke-linejoin:round;stroke-miterlimit:10;}
	.st1{fill:none;stroke:#F1592A;stroke-width:3;stroke-linecap:round;stroke-linejoin:round;stroke-miterlimit:10;}
</style>
<path class="st0" d="M479.75,263.08c-0.67-9.42-10.75-9-10.75-9c-1.65-9.77-9.26-9.71-10.75-9.61c-1.48-0.11-9.09-0.16-10.75,9.61
	c0,0-10.08-0.42-10.75,9c0,0-1.75,8.75,10.88,10.42v8.33l1.71,1.33H458h0.51h8.66l1.71-1.33v-8.33
	C481.5,271.83,479.75,263.08,479.75,263.08z"/>
<line class="st1" x1="452.58" y1="274.17" x2="452.58" y2="275.67"/>
<line class="st1" x1="458.51" y1="274.17" x2="458.51" y2="275.67"/>
<line class="st1" x1="464.33" y1="274.17" x2="464.33" y2="275.67"/>
</svg>
