<?xml version="1.0" encoding="utf-8"?>
<!-- Generator: Adobe Illustrator 23.0.6, SVG Export Plug-In . SVG Version: 6.00 Build 0)  -->
<svg version="1.0" id="Layer_1" xmlns="http://www.w3.org/2000/svg" xmlns:xlink="http://www.w3.org/1999/xlink" x="0px" y="0px"
	 viewBox="0 0 100 100" style="enable-background:new 0 0 100 100;" xml:space="preserve">
<style type="text/css">
	.st0{fill:#938984;}
	.st1{fill:#F18A00;}
	.st2{fill:#D2451E;}
	.st3{fill:#FDBD10;}
</style>
<g>
	<path class="st0" d="M-19.2,65.5v-7.1h1.3v7c0,2.6,1.4,4.1,3.7,4.1c2.2,0,3.6-1.4,3.7-4v-7.1h1.3v7c0,3.5-2,5.4-5.1,5.4
		C-17.1,70.8-19.2,69-19.2,65.5z"/>
	<path class="st0" d="M3.6,58.4v12.2H2.5l-7.6-9.9v9.9h-1.3V58.4h1.3l7.5,9.7v-9.7H3.6z"/>
	<path class="st0" d="M6.3,58.4h1.3v12.2H6.3V58.4z"/>
	<path class="st0" d="M53.7,58.4H55v12.2h-1.3V58.4z"/>
	<path class="st0" d="M8.8,58.4h1.5l4.2,10.4l4.2-10.4h1.4l-5.1,12.2h-1.2L8.8,58.4z"/>
	<path class="st0" d="M21.4,58.4h8.7v1.3h-7.4v4.1h6.5v1.3h-6.5v4.2h7.4v1.3h-8.7V58.4z"/>
	<path class="st0" d="M50.2,67.4c0-1.1-0.6-1.8-3.1-2.3c-2.7-0.6-4-1.5-4-3.5c0,0-0.1-3.4,3.9-3.4c1.7,0,3,0.5,4.2,1.5l-0.8,1.1
		c-1.1-0.9-2.2-1.3-3.4-1.3c-2.6,0-2.5,2-2.5,2c0,1.1,0.6,1.8,3.2,2.4c2.6,0.6,3.9,1.6,3.9,3.4c0,0,0.2,3.5-4.1,3.5
		c-1.9,0-3.4-0.7-4.9-2l0.8-1c1.2,1.1,2.4,1.7,4.1,1.7C50.4,69.5,50.2,67.4,50.2,67.4z"/>
	<path class="st0" d="M60.2,59.7h-3.8v-1.3h8.9v1.3h-3.8v10.9h-1.4V59.7z"/>
	<path class="st0" d="M69.7,65.8l-4.4-7.4h1.6l3.5,6.1l3.5-6.1h1.6l-4.4,7.3v4.8h-1.4V65.8z"/>
	<path class="st0" d="M40.1,70.6h1.6l-3-5.3c1.6-0.4,2.7-1.4,2.7-3.3c0-2.4-1.7-3.5-3.9-3.5h-5.1v12.2h1.3v-5.2h3.6L40.1,70.6z
		 M33.7,59.7h3.8c1.7,0,2.6,0.8,2.6,2.2c0,1.5-0.9,2.2-2.6,2.2h-3.8V59.7z"/>
	<path class="st0" d="M63.1,34.1v19.1h3.3v-4.1c0.1-0.1,1.4-1.5,1.7-1.9l3.6,6h3.8l-5.2-8.4l5-5.5h-4l-4.9,5.6V34.1H63.1z"/>
	<path class="st0" d="M40,56.6c1.8,0,3.3-0.6,4.4-1.6c1.1-1.1,1.6-2.7,1.6-4.4V39.3h-3c0,0-0.1,0.6-0.1,1c-0.9-0.8-2-1.2-3.3-1.2
		c-1.5,0-2.6,0.4-3.5,1.2c-1.1,1-1.6,2.4-1.6,5.1c0,2.7,0.5,4,1.6,5.1c0.9,0.8,2,1.3,3.4,1.3c1.3,0,2.4-0.4,3.2-1.2
		c0,0.5,0,0.4,0,0.4c0,0.9-0.2,1.7-0.7,2.2c-0.5,0.6-1.2,0.9-2.3,0.9c-1.9,0-3-1.3-3-1.3l-1.8,1.9C35.1,54.7,36.5,56.6,40,56.6z
		 M42.4,47.7c-0.4,0.8-1.1,1.2-2.1,1.2c-1,0-1.7-0.4-2.1-1.2c-0.3-0.6-0.5-1-0.5-2.2c0-1.3,0.1-1.6,0.5-2.2c0.4-0.8,1.1-1.2,2.1-1.2
		c1,0,1.7,0.4,2.1,1.2c0.3,0.6,0.4,1,0.4,2.2C42.9,46.7,42.7,47.1,42.4,47.7z"/>
	<path class="st0" d="M26.6,56.6c1.9,0,3.3-0.6,4.4-1.6c1.1-1.1,1.6-2.7,1.6-4.4V39.3h-3c0,0-0.1,0.6-0.1,1c-0.9-0.8-2-1.2-3.3-1.2
		c-1.5,0-2.6,0.4-3.5,1.2c-1.1,1-1.6,2.4-1.6,5.1c0,2.7,0.5,4,1.6,5.1c0.9,0.8,2,1.3,3.4,1.3c1.3,0,2.4-0.4,3.2-1.2
		c0,0.5,0,0.4,0,0.4c0,0.9-0.2,1.7-0.7,2.2c-0.5,0.6-1.2,0.9-2.3,0.9c-1.9,0-3-1.3-3-1.3l-1.8,1.9C21.7,54.7,23.1,56.6,26.6,56.6z
		 M29,47.7c-0.4,0.8-1.1,1.2-2.1,1.2c-1,0-1.7-0.4-2.1-1.2c-0.3-0.6-0.5-1-0.5-2.2c0-1.3,0.1-1.6,0.4-2.2c0.4-0.8,1.1-1.2,2.1-1.2
		c1,0,1.7,0.4,2.1,1.2c0.3,0.6,0.4,1,0.4,2.2C29.4,46.7,29.3,47.1,29,47.7z"/>
	<path class="st0" d="M0,39.2c-1.7,0-3.2,0.6-4.3,1.7C-5.4,42-6,43.8-6,46.3c0,2.5,0.6,4.3,1.7,5.4c1.1,1.1,2.5,1.7,4.3,1.7
		c1.7,0,3.2-0.6,4.3-1.7c1.1-1.1,1.7-2.9,1.7-5.4c0-2.5-0.6-4.3-1.7-5.4C3.1,39.7,1.7,39.2,0,39.2z M1.8,49.8
		c-0.5,0.5-1.1,0.7-1.8,0.7c-0.7,0-1.3-0.2-1.8-0.7c-0.6-0.6-0.9-1.7-0.9-3.5c0-1.8,0.3-2.9,0.9-3.5c0.5-0.5,1.1-0.7,1.8-0.7
		c0.8,0,1.4,0.2,1.8,0.7c0.6,0.6,0.9,1.7,0.9,3.5C2.6,48,2.4,49.2,1.8,49.8z"/>
	<path class="st0" d="M57.1,39.3v8.4c0,0.9-0.2,1.6-0.7,2.1c-0.5,0.5-1.1,0.7-1.8,0.7c-0.7,0-1.3-0.2-1.7-0.6
		c-0.5-0.5-0.7-1.2-0.7-2.1v-8.4h-3.3v8.8c0,1.7,0.5,3,1.4,4c0.9,0.9,2.1,1.3,3.5,1.3c1.3,0,2.4-0.4,3.3-1.2c0,0.4,0.1,1.1,0.1,1.1
		h3.1V39.3H57.1z"/>
	<path class="st0" d="M14.3,39.2c-1.3,0-2.4,0.4-3.4,1.2c0-0.4-0.1-1-0.1-1H7.8v13.9H11v-8.4c0-0.9,0.3-1.6,0.8-2.1
		c0.5-0.4,1.1-0.6,1.8-0.6c0.8,0,1.3,0.2,1.8,0.6c0.5,0.5,0.7,1.2,0.7,2.1v8.4h3.3v-8.8c0-1.7-0.5-3-1.4-4
		C17,39.6,15.8,39.2,14.3,39.2z"/>
	<path class="st0" d="M-11.1,40.4c-0.9-0.8-2.1-1.2-3.5-1.2c-1.5,0-2.6,0.4-3.5,1.3c-1.1,1.1-1.6,3-1.6,5.8c0,2.9,0.5,4.8,1.6,5.9
		c0.8,0.8,2,1.3,3.5,1.3c1.3,0,2.6-0.4,3.5-1.2c0,0.4,0.1,1.1,0.1,1.1h3.1V34.1h-3.3V40.4z M-11.9,49.8c-0.5,0.5-1.1,0.7-1.8,0.7
		c-0.7,0-1.3-0.2-1.8-0.7c-0.6-0.6-0.9-1.7-0.9-3.5c0-1.8,0.3-2.9,0.9-3.5c0.5-0.5,1.1-0.7,1.8-0.7c0.8,0,1.4,0.2,1.8,0.7
		c0.6,0.6,0.9,1.7,0.9,3.5C-11.1,48-11.4,49.2-11.9,49.8z"/>
	<path class="st1" d="M91.5,55.9l-11.7,3.4c-1.2,0.4-1.4,1.3-0.5,2.2l3.6,3.2c1.3,1.1,2.4,1.2,3.8,0.6l9-4.2v-1.1L91.5,55.9z"/>
	<path class="st1" d="M95.7,50.9L84.6,37.6c-0.8-1-1.8-0.8-2.1,0.4L81,42.8c-0.4,1.2-0.2,2.6,1,3.8l9.6,9.3l4.2-1.2V50.9z"/>
	<polygon class="st2" points="95.7,54.7 91.5,55.9 95.7,59.9 	"/>
	<path class="st2" d="M96.8,61l9.1,13.2c0.7,1,1.8,1.1,2.4-0.1l1.9-3.4c0.8-1.5,0.6-2.6-0.4-3.7l-3.9-4.4L96.8,61z"/>
	<path class="st3" d="M105.9,62.6L120,65c1.7,0.3,2.7-0.2,3.7-1.4l3.5-4.3c0.8-1,0.4-1.8-0.9-1.8l-21.2-0.6c-0.3,1.1-1,2.1-1.8,2.8
		L105.9,62.6z"/>
	<path class="st2" d="M123.6,49.9c1.2-0.5,1.3-1.4,0.3-2.1l-4.6-3.1l-13.8,11.2c0,0.3-0.1,0.7-0.2,1L123.6,49.9z"/>
	<path class="st1" d="M119.3,44.8c-0.9-0.6-2.1-0.6-3.4,0.1l-11.6,6.3c0.8,1,1.2,2.4,1.2,3.9c0,0.3,0,0.6-0.1,1L119.3,44.8z"/>
	<path class="st3" d="M115.8,44.8c1.3-0.7,2.5-0.7,3.4-0.1l3.4-2.8c1.3-1,1.6-2.1,1.2-3.7l-1.4-5.8c-0.3-1.2-1.3-1.5-2.1-0.5
		l-17,18.1c0.4,0.3,0.7,0.6,1,1L115.8,44.8z"/>
	<path class="st2" d="M108.2,36.8c0.5-1.5,0.3-2.6-0.9-3.7l-3.8-3.5c-0.9-0.9-1.9-0.6-2.1,0.7l-1,5.1c1.1,0.6,1.4,1.7,1.4,3
		L101.1,49c0.8,0.2,1.6,0.6,2.2,1.1L108.2,36.8z"/>
	<path class="st3" d="M96,32.9c-1.1-0.6-1.9-0.1-1.8,1.2l1.5,14.8H98l2.6-13.5L96,32.9z"/>
	<path class="st1" d="M101.9,38.4c0.1-1.3-0.3-2.4-1.4-3L98,48.9h1.9c0.5,0,0.9,0.1,1.3,0.1L101.9,38.4z"/>
	<path class="st1" d="M103.4,59.8c-0.9,0.8-2.2,1.3-3.6,1.3h-3l9.1,1.6L103.4,59.8z"/>
</g>
</svg>
